HIERARCHY
ROOT joint_Root
{
	OFFSET 0.0 0.0 0.0
	CHANNELS 6 Xposition Yposition Zposition Zrotation Xrotation Yrotation 
	JOINT Hips
	{
		OFFSET -0.726466 93.3139 -2.00062
		CHANNELS 6 Xposition Yposition Zposition Zrotation Xrotation Yrotation 
		JOINT Spine
		{
			OFFSET 15.7357 0.0 0.0
			CHANNELS 6 Xposition Yposition Zposition Zrotation Xrotation Yrotation 
			JOINT Chest
			{
				OFFSET 8.98455 -0.406207 0.0
				CHANNELS 6 Xposition Yposition Zposition Zrotation Xrotation Yrotation 
				JOINT Neck
				{
					OFFSET 16.3773 0.0 0.0
					CHANNELS 6 Xposition Yposition Zposition Zrotation Xrotation Yrotation 
					JOINT Head
					{
						OFFSET 6.45672 0.0 0.0
						CHANNELS 6 Xposition Yposition Zposition Zrotation Xrotation Yrotation 
						End Site
						{
							OFFSET 0.0 0.0 0.0
						}
					}
				}
				JOINT Shoulder_L
				{
					OFFSET 12.9942 -0.242716 4.98039
					CHANNELS 6 Xposition Yposition Zposition Zrotation Xrotation Yrotation 
					JOINT UpperArm_L
					{
						OFFSET 5.34809 0.0 0.0
						CHANNELS 6 Xposition Yposition Zposition Zrotation Xrotation Yrotation 
						JOINT LowerArm_L
						{
							OFFSET 24.3286 1.87007e-05 0.0
							CHANNELS 6 Xposition Yposition Zposition Zrotation Xrotation Yrotation 
							JOINT Hand_L
							{
								OFFSET 22.2916 0.0 0.0
								CHANNELS 6 Xposition Yposition Zposition Zrotation Xrotation Yrotation 
								End Site
								{
									OFFSET 0.0 0.0 0.0
								}
							}
						}
					}
				}
				JOINT Shoulder_R
				{
					OFFSET 12.9945 -0.242716 -4.98039
					CHANNELS 6 Xposition Yposition Zposition Zrotation Xrotation Yrotation 
					JOINT UpperArm_R
					{
						OFFSET -5.34813 0.0 0.0
						CHANNELS 6 Xposition Yposition Zposition Zrotation Xrotation Yrotation 
						JOINT LowerArm_R
						{
							OFFSET -24.3289 0.000322201 0.0
							CHANNELS 6 Xposition Yposition Zposition Zrotation Xrotation Yrotation 
							JOINT Hand_R
							{
								OFFSET -22.2915 -0.000108084 0.0
								CHANNELS 6 Xposition Yposition Zposition Zrotation Xrotation Yrotation 
								End Site
								{
									OFFSET 0.0 0.0 0.0
								}
							}
						}
					}
				}
			}
		}
		JOINT UpperLeg_L
		{
			OFFSET -2.19248 -6.46944 0.0
			CHANNELS 6 Xposition Yposition Zposition Zrotation Xrotation Yrotation 
			JOINT LowerLeg_L
			{
				OFFSET 39.0811 0.0 -1.23785e-05
				CHANNELS 6 Xposition Yposition Zposition Zrotation Xrotation Yrotation 
				JOINT Foot_L
				{
					OFFSET 40.9854 0.0 -1.26872e-05
					CHANNELS 6 Xposition Yposition Zposition Zrotation Xrotation Yrotation 
					JOINT Toes_L
					{
						OFFSET 11.7543 0.0 0.0
						CHANNELS 6 Xposition Yposition Zposition Zrotation Xrotation Yrotation 
						End Site
						{
							OFFSET 0.0 0.0 0.0
						}
					}
				}
			}
		}
		JOINT UpperLeg_R
		{
			OFFSET -2.19251 6.46944 0.0
			CHANNELS 6 Xposition Yposition Zposition Zrotation Xrotation Yrotation 
			JOINT LowerLeg_R
			{
				OFFSET -39.0811 -0.00228153 -0.0401928
				CHANNELS 6 Xposition Yposition Zposition Zrotation Xrotation Yrotation 
				JOINT Foot_R
				{
					OFFSET -40.9854 0.0 0.0
					CHANNELS 6 Xposition Yposition Zposition Zrotation Xrotation Yrotation 
					JOINT Toes_R
					{
						OFFSET -11.7543 0.0 0.0
						CHANNELS 6 Xposition Yposition Zposition Zrotation Xrotation Yrotation 
						End Site
						{
							OFFSET 0.0 0.0 0.0
						}
					}
				}
			}
		}
	}
}
MOTION
Frames:	4
Frame Time:	0.0333333
0.000000 0.000000 0.000000 0.000000 0.000000 -0.000000 2.325520 81.432900 -29.965700 84.326300 -0.860611 -2.337930 15.735700 0.000005 -0.000001 85.924900 79.890300 -82.914500 8.984550 -0.406207 -0.000000 12.446200 -1.300620 6.162070 16.377300 -0.000001 -0.000001 1.016330 0.160724 -2.225410 6.456720 -0.000001 -0.000000 -4.626000 3.122640 2.257840 12.994200 -0.242716 4.980390 -88.139200 -4.830680 -68.903600 5.348090 -0.000007 -0.000001 -62.162000 31.323300 -4.569200 24.328600 0.000019 0.000005 0.342689 0.278536 -51.114900 22.291600 -0.000001 0.000005 -3.101950 5.628270 -13.208300 12.994500 -0.242716 -4.980390 87.528400 5.698420 -66.504600 -5.348130 -0.000001 -0.000004 -45.990500 21.824700 -23.472400 -24.328900 0.000322 -0.000009 0.044193 0.031777 -55.209700 -22.291500 -0.000108 -0.000004 -2.678790 5.585140 -10.490800 -2.192480 -6.469440 -0.000000 -172.893000 -4.749660 -22.313800 39.081100 -0.000007 -0.000012 -0.338568 -0.124051 110.124000 40.985400 -0.000006 -0.000013 7.486870 -6.565440 -46.032300 11.754300 -0.000000 0.000003 -0.006600 -0.076204 -19.678700 -2.192510 6.469440 -0.000001 -167.630000 7.752990 150.763000 -39.081100 -0.002282 -0.040193 0.222571 -0.115357 62.263900 -40.985400 0.000008 0.000006 10.031000 -8.878270 -84.379000 -11.754300 -0.000006 -0.000006 -0.003374 -0.044762 -18.393600
0.000000 0.000000 0.000000 0.000000 0.000000 -0.000000 2.724060 81.250200 -22.041600 85.965400 -3.698480 -2.910780 15.735700 0.000005 -0.000001 92.807700 80.135600 -90.727600 8.984550 -0.406207 -0.000000 11.924900 1.033450 4.051170 16.377300 -0.000001 -0.000001 1.459400 0.370473 -1.158880 6.456720 -0.000001 -0.000000 -3.295000 1.581730 1.783120 12.994200 -0.242716 4.980390 -88.230700 -4.278910 -67.509000 5.348090 -0.000007 -0.000001 -62.654500 31.645200 0.633541 24.328600 0.000019 0.000005 7.150620 6.507150 -47.908300 22.291600 -0.000001 0.000005 -6.583440 5.630530 -13.376400 12.994500 -0.242716 -4.980390 88.014400 4.868020 -67.778400 -5.348130 -0.000001 -0.000004 -44.282200 18.210000 -31.394300 -24.328900 0.000322 -0.000009 -1.487990 -0.899175 -58.835200 -22.291500 -0.000108 -0.000004 -1.818240 5.583720 -10.412800 -2.192480 -6.469440 -0.000000 -176.929000 -6.731510 -32.145100 39.081100 -0.000007 -0.000012 -0.404538 -0.175029 113.398000 40.985400 -0.000006 -0.000013 8.999260 -8.154860 -49.436100 11.754300 -0.000000 0.000003 -0.006427 -0.074674 -19.616300 -2.192510 6.469440 -0.000001 -171.184000 7.626020 157.359000 -39.081100 -0.002282 -0.040193 0.199432 -0.107664 61.249400 -40.985400 0.000008 0.000006 9.306730 -6.621360 -88.983500 -11.754300 -0.000006 -0.000006 -0.482553 -0.597519 -19.235200
0.000000 0.000000 0.000000 0.000000 0.000000 -0.000000 3.502570 82.948000 -13.525900 88.314500 -7.526100 -3.903280 15.735700 0.000005 -0.000001 102.259000 80.516200 -101.471000 8.984550 -0.406207 -0.000000 10.761100 4.018990 1.196740 16.377300 -0.000001 -0.000001 2.339750 0.514527 -0.442031 6.456720 -0.000001 -0.000000 -2.833690 0.003587 2.177920 12.994200 -0.242716 4.980390 -88.393900 -3.577350 -65.802100 5.348090 -0.000007 -0.000001 -62.964400 31.694400 6.829110 24.328600 0.000019 0.000005 6.054720 5.514410 -47.824500 22.291600 -0.000001 0.000005 -5.834100 5.634250 -13.659500 12.994500 -0.242716 -4.980390 88.513900 3.774810 -68.493300 -5.348130 -0.000001 -0.000004 -42.746200 16.027900 -36.033600 -24.328900 0.000322 -0.000009 -1.903570 -0.962010 -63.179900 -22.291500 -0.000108 -0.000004 -0.958533 5.579540 -10.187200 -2.192480 -6.469440 -0.000000 178.299000 -8.532080 -38.936500 39.081100 -0.000007 -0.000012 -0.297761 -0.095336 107.756000 40.985400 -0.000006 -0.000013 8.365050 -9.550280 -54.037900 11.754300 -0.000000 0.000003 -0.006339 -0.073897 -19.584600 -2.192510 6.469440 -0.000001 -176.555000 6.520430 166.001000 -39.081100 -0.002282 -0.040193 0.119482 -0.084827 53.882100 -40.985400 0.000008 0.000006 9.022800 -2.567010 -87.391700 -11.754300 -0.000006 -0.000006 -1.771270 -1.938700 -22.682900
0.000000 0.000000 0.000000 0.000000 0.000000 -0.000000 4.196980 86.021300 -4.592300 90.502200 -9.516450 -4.865490 15.735700 0.000005 -0.000001 108.500000 80.897300 -108.911000 8.984550 -0.406207 -0.000000 9.554710 5.736920 -1.300810 16.377300 -0.000001 -0.000001 3.202930 0.801370 -0.088021 6.456720 -0.000001 -0.000000 -2.455170 -1.252340 3.068970 12.994200 -0.242716 4.980390 -87.996700 -4.139340 -64.146700 5.348090 -0.000007 -0.000001 -64.620400 29.614800 12.201800 24.328600 0.000019 0.000005 4.766360 4.319040 -47.911300 22.291600 -0.000001 0.000005 -6.095490 5.629390 -13.290000 12.994500 -0.242716 -4.980390 88.939500 2.754750 -68.935300 -5.348130 -0.000001 -0.000004 -42.211800 15.585200 -38.109900 -24.328900 0.000322 -0.000009 -3.372670 -1.457950 -66.636800 -22.291500 -0.000108 -0.000004 -0.340633 5.577670 -10.087400 -2.192480 -6.469440 -0.000000 174.917000 -7.775860 -42.039200 39.081100 -0.000007 -0.000012 -0.148863 -0.012266 94.714400 40.985400 -0.000006 -0.000013 7.672160 -10.276500 -58.167000 11.754300 -0.000000 0.000003 -0.005307 -0.064411 -19.197700 -2.192510 6.469440 -0.000001 178.508000 5.548130 174.669000 -39.081100 -0.002282 -0.040193 0.058806 -0.058093 43.711600 -40.985400 0.000008 0.000006 8.453720 1.237860 -77.460400 -11.754300 -0.000006 -0.000006 -0.062480 -0.339750 -30.613100
